<?xml version="1.0" standalone="no"?>
<svg xmlns="http://www.w3.org/2000/svg" viewBox="0 0 191.376 29" width="191.376" height="29"><g fill="#ff8888" color="#ff8888" transform="translate(0, 0) scale(0.6904762)"><svg width="42.0" height="42.0" x="0.0" y="0.0" viewBox="0 0 42 42"><path fill="currentColor" fill-rule="nonzero" d="M21 41.41L41.41.59H.59L21 41.41zm0-7.61l-11.5-23h15.4l-1.7 3.4H15l6 12 9.4-18.8H7.8L6.1 4h29.8L21 33.8z"></path></svg></g><line x1="41" y1="1" x2="41" y2="28" stroke="#0b0cac" stroke-linecap="round"></line><path fill="#0b0cac" fill-rule="nonzero" d="M12.38 14.02L12.38 14.02Q12.38 16.39 11.10 17.66Q9.82 18.94 7.51 18.94L7.51 18.94L5.21 18.94Q2.38 18.94 1.19 17.95Q0 16.97 0 14.54L0 14.54L0 1.85L7.22 1.85Q9.67 1.85 10.91 3.07Q12.14 4.30 12.14 6.53L12.14 6.53Q12.14 7.82 11.48 8.74Q10.82 9.65 10.03 10.03L10.03 10.03Q12.38 11.14 12.38 14.02ZM3.34 8.52L6.96 8.52Q8.81 8.52 8.81 6.67Q8.81 4.82 6.96 4.82L6.96 4.82L3.34 4.82L3.34 8.52ZM9.05 13.85L9.05 13.85Q9.05 12.70 8.64 12.11Q8.23 11.52 7.18 11.52L7.18 11.52L3.34 11.52L3.34 14.21Q3.34 15.19 3.83 15.58Q4.32 15.96 5.45 15.96L5.45 15.96L7.18 15.96Q9.05 15.96 9.05 13.85ZM24.98 5.14L24.98 18.94L22.90 18.94L21.94 17.28L18.60 19.08Q15.82 19.08 14.86 17.06L14.86 17.06Q14.38 16.08 14.20 14.94Q14.02 13.80 14.02 12.56Q14.02 11.33 14.04 10.74Q14.06 10.15 14.16 9.37Q14.26 8.59 14.44 8.06Q14.62 7.54 14.95 6.97Q15.29 6.41 15.77 6.07L15.77 6.07Q16.85 5.33 18.58 5.33L18.58 5.33L21.86 5.33L24.98 5.14ZM19.49 15.79L21.86 14.57L21.86 8.14L19.49 8.14Q18.17 8.14 17.65 9.14Q17.14 10.15 17.14 12.16Q17.14 14.16 17.63 14.98Q18.12 15.79 19.49 15.79L19.49 15.79ZM39 9.74L39 18.94L35.88 18.94L35.88 10.18Q35.88 9 35.40 8.57Q34.92 8.14 34.06 8.14L34.06 8.14L31.25 9.31L31.25 18.94L28.13 18.94L28.13 5.23L30.46 5.23L31.18 6.86L35.02 5.09Q36.62 5.09 37.81 6.28Q39 7.46 39 9.74L39 9.74ZM48.60 11.93L53.90 18.94L50.16 18.94L46.56 14.09L45.19 16.03L45.19 18.94L42.07 18.94L42.07 0.89L45.19 0.89L45.19 12.29L49.56 5.78L53.09 5.78L48.60 11.93ZM57.12 0Q58.25 0 58.58 0.35Q58.92 0.70 58.92 1.81Q58.92 2.93 58.57 3.28Q58.22 3.62 57.11 3.62Q55.99 3.62 55.64 3.26Q55.30 2.90 55.30 1.80Q55.30 0.70 55.64 0.35Q55.99 0 57.12 0ZM58.66 5.74L58.66 18.94L55.54 18.94L55.54 5.74L58.66 5.74ZM72.77 9.74L72.77 18.94L69.65 18.94L69.65 10.18Q69.65 9 69.17 8.57Q68.69 8.14 67.82 8.14L67.82 8.14L65.02 9.31L65.02 18.94L61.90 18.94L61.90 5.23L64.22 5.23L64.94 6.86L68.78 5.09Q70.39 5.09 71.58 6.28Q72.77 7.46 72.77 9.74L72.77 9.74ZM79.32 5.33L82.61 5.33L85.73 5.14L85.73 18.31Q85.73 20.59 84.44 21.80Q83.16 23.02 80.64 23.02L80.64 23.02Q78.70 23.02 77.23 22.25L77.23 22.25Q76.46 21.86 76.01 21.10Q75.55 20.33 75.55 19.27L75.55 19.27L78.46 19.13Q78.46 19.80 78.94 20.09Q79.42 20.38 80.58 20.38Q81.74 20.38 82.16 19.80Q82.58 19.22 82.58 18.14L82.58 18.14L82.70 16.08L79.34 17.88Q76.58 17.88 75.62 16.01L75.62 16.01Q74.76 14.35 74.76 11.95L74.76 11.95Q74.76 9.10 75.19 7.92L75.19 7.92Q75.65 6.62 76.49 6.05L76.49 6.05Q77.57 5.33 79.32 5.33L79.32 5.33ZM80.23 14.59L82.61 13.37L82.61 8.14L80.23 8.14Q78.89 8.14 78.38 9.05Q77.88 9.96 77.88 11.59Q77.88 13.22 78.40 13.91Q78.91 14.59 80.23 14.59L80.23 14.59ZM100.66 12.31L100.66 15.26L98.74 15.26L98.74 18.94L95.76 18.94L95.76 15.26L90.79 15.26Q89.57 15.26 88.96 14.75Q88.34 14.23 88.34 13.32L88.34 13.32Q88.34 12.84 88.75 11.62Q89.16 10.39 91.03 5.33L91.03 5.33L94.37 5.33L91.75 12.31L95.76 12.31L95.76 1.85L98.74 1.85L98.74 12.31L100.66 12.31ZM111.65 1.85L115.27 1.85L110.14 11.93L110.14 18.94L106.82 18.94L106.82 11.93L101.69 1.85L105.31 1.85L108.50 8.74L111.65 1.85ZM124.51 12.74L124.51 12.74L124.51 11.50Q124.51 9.72 124.00 8.78Q123.48 7.85 121.85 7.85L121.85 7.85Q119.21 7.85 119.21 11.40L119.21 11.40L119.21 12.65Q119.21 16.46 121.85 16.46L121.85 16.46Q123.55 16.46 124.08 15.19L124.08 15.19Q124.51 14.18 124.51 12.74ZM127.63 12.02L127.63 12.02Q127.63 16.46 125.95 17.98L125.95 17.98Q124.54 19.27 121.85 19.27L121.85 19.27Q118.42 19.27 117.22 17.26L117.22 17.26Q116.09 15.41 116.09 12.02L116.09 12.02Q116.09 8.86 117.22 7.06L117.22 7.06Q118.46 5.04 121.76 5.04Q125.06 5.04 126.35 6.80Q127.63 8.57 127.63 12.02ZM140.38 5.23L140.38 18.94L138.05 18.94L137.33 17.30L133.49 19.08Q131.88 19.08 130.69 17.89Q129.50 16.70 129.50 14.42L129.50 14.42L129.50 5.23L132.62 5.23L132.62 13.75Q132.62 16.03 134.45 16.03L134.45 16.03L137.26 14.52L137.26 5.23L140.38 5.23Z" transform="translate(51, 5.032)"></path></svg>